<svg width="158" height="46" viewBox="0 0 158 46" fill="none" xmlns="http://www.w3.org/2000/svg">
<path d="M27.6031 45.7921L31.4104 37.2256H65.6763L69.4836 45.7921H48.5434H27.6031Z" fill="white"/>
<path d="M48.0675 19.617L48.0675 1.05628L63.7728 34.451L54.7162 34.451L48.0675 19.617Z" fill="url(#paint0_linear_28_31)"/>
<path fill-rule="evenodd" clip-rule="evenodd" d="M55.2062 0.00012207H72.4048C75.9495 0.00012207 78.9691 0.632856 81.4636 1.89833C83.958 3.12016 85.8179 4.80019 87.0433 6.9384C88.3124 9.03297 88.9469 11.3894 88.9469 14.0076C88.9469 17.0185 88.0717 19.7458 86.3212 22.1895C84.5707 24.5895 81.9668 26.2477 78.5096 27.1641L89.4721 45.688H78.8378L55.2062 0.00012207ZM74.0459 20.8149H65.9725L59.0319 7.39658H74.0459C76.5403 7.39658 78.4002 7.98568 79.6256 9.16388C80.8509 10.2984 81.4636 11.913 81.4636 14.0076C81.4636 16.1458 80.8509 17.8258 79.6256 19.0476C78.4002 20.2258 76.5403 20.8149 74.0459 20.8149Z" fill="white"/>
<path d="M52.3507 10.0985L48.0674 1.05603L32.3622 34.4508L41.8946 34.4508L52.3507 10.0985Z" fill="url(#paint1_linear_28_31)"/>
<path fill-rule="evenodd" clip-rule="evenodd" d="M113.313 32.3624C112.014 29.4574 111.364 26.274 111.364 22.8121C111.364 18.467 112.408 14.5691 114.495 11.1186C116.583 7.62541 119.409 4.89905 122.975 2.93948C126.541 0.979907 130.455 0.00012207 134.717 0.00012207C139.022 0.00012207 142.936 0.979907 146.458 2.93948C150.024 4.89905 152.829 7.62541 154.873 11.1186C156.96 14.5691 158.004 18.467 158.004 22.8121C158.004 26.274 157.354 29.4574 156.055 32.3624H145.817C146.194 31.8349 146.538 31.2713 146.85 30.6717C148.024 28.4139 148.611 25.7941 148.611 22.8121C148.611 19.8301 148.024 17.2316 146.85 15.0164C145.675 12.7586 144.045 11.0334 141.957 9.84058C139.87 8.6478 137.456 8.05141 134.717 8.05141C131.977 8.05141 129.542 8.6478 127.411 9.84058C125.323 11.0334 123.693 12.7586 122.519 15.0164C121.344 17.2316 120.757 19.8301 120.757 22.8121C120.757 25.7941 121.344 28.4139 122.519 30.6717C122.83 31.2713 123.174 31.8349 123.551 32.3624H113.313ZM134.746 45.688C134.736 45.688 134.726 45.688 134.717 45.688C134.707 45.688 134.697 45.688 134.688 45.688H134.746Z" fill="white"/>
<rect x="96.135" y="0.00012207" width="8.56647" height="32.3622" fill="white"/>
<path fill-rule="evenodd" clip-rule="evenodd" d="M0 45.6881H4.51657C9.30683 45.6881 13.5092 44.7499 17.1237 42.8735C20.7817 40.9971 23.5905 38.357 25.5502 34.9534C27.5534 31.506 28.555 27.4915 28.555 22.9096C28.555 18.3277 27.5534 14.3131 25.5502 10.8658C23.5905 7.37482 20.7817 4.69115 17.1237 2.81476C13.5092 0.938376 9.30683 0.000183105 4.51657 0.000183105H0V7.72392H4.18997C8.98022 7.72392 13.6336 9.07666 16.2465 11.7822C18.8594 14.444 20.1658 18.1531 20.1658 22.9096C20.1658 27.666 18.8594 31.3533 16.2465 33.9715C13.6336 36.5898 8.98022 37.8989 4.18997 37.8989H0V45.6881Z" fill="white"/>
<defs>
<linearGradient id="paint0_linear_28_31" x1="44.7361" y1="3.80739" x2="63.7728" y2="35.2178" gradientUnits="userSpaceOnUse">
<stop stop-color="#373533" stop-opacity="0"/>
<stop offset="0.0001" stop-color="#006AFF"/>
<stop offset="1" stop-color="#300073"/>
</linearGradient>
<linearGradient id="paint1_linear_28_31" x1="50.0172" y1="1.78502" x2="37.1365" y2="36.2358" gradientUnits="userSpaceOnUse">
<stop offset="0.598958" stop-color="#006AFF"/>
<stop offset="1" stop-color="#300073"/>
</linearGradient>
</defs>
</svg>
